Patient4_TMGait_0pt3_01_left_22_EMG.mot
version=1
nRows=13
nColumns=33
inDegrees=no
endheader
time	1LAddLong	2LGlutMax	3LGlutMed	4LIliopsoas	5LSemiMemb	6LBicFemLong	7LRecFem	8LVastMed	9LVastLat	10LGasMed	11LTibAnt	12lTibPost	13LPeroneusLong	14LSol	15LExtDigLong	16LFlexDigLong	17RAddLong	18RGlutMax	19RGlutMed	20RIliopsoas	21RSemiMemb	22RBicFemLong	23RRecFem	24RVastMed	25RVastLat	26RGasMed	27RTibAnt	28RTibPost	29RPeroneusLong	30RSol	31RExtDigLong	32RFlexDigLong
41.23	-0.02243	0.46097	0.049591	0.034637	0.005035	-0.024719	-0.040894	0.009003	-0.008545	-0.041656	-0.12985	-0.001221	0.054016	-0.046387	-0.41077	0.00412	0.06424	-0.001373	1.0522	-0.1738	-0.023499	0.061798	-0.29694	0.86075	-0.13046	-0.013428	0.61859	-0.019989	-0.072174	0.048523	-0.002594	-0.014496
41.231	-0.015869	0.46814	0.027924	0.007782	0.002136	-0.037994	-0.011597	0.010376	-0.006104	-0.014038	-0.17075	0.003357	-0.002594	0.011139	-0.25177	-0.003967	0.06546	-0.026398	0.57236	-0.1532	-0.030975	0.032654	-0.44113	0.27802	-0.12863	-0.015259	-0.033417	-0.017242	-0.070496	-0.27008	-0.002899	-0.00351
41.232	0.008545	0.47073	-0.031586	-0.022278	-0.006409	-0.025787	0.016632	0.007629	-0.01236	-0.029297	-0.036774	-0.00351	0.07309	0.005341	-0.47409	0.001373	0.054169	-0.002747	0.13138	-0.11963	-0.097046	0.06897	-0.94849	-0.51575	-0.14191	-0.014343	0.040283	-0.025177	-0.11856	-0.42969	-0.001068	-0.014191
41.233	-0.002747	0.466	0.013123	-0.00946	-0.001831	-0.037537	0.023041	0.010986	0.001373	-0.013275	-0.06134	0.007477	0.012665	-0.015106	-0.45151	-0.00885	0.05661	0.092773	-0.40176	-0.015411	-0.20233	0.07019	-1.2009	-1.3979	-0.25116	-0.025635	0.20447	-0.018005	-0.16052	-0.1831	0.001068	-0.011749
41.234	0.000153	0.49011	0.003662	-0.017242	-0.000763	-0.018616	0.017395	0.007935	0.003052	-0.017395	-0.088654	0.000916	-0.014496	-0.04364	-0.29282	-0.014191	0.094299	0.035248	-0.3154	0.12375	-0.32318	0.11292	-1.1671	-1.6972	-0.17212	-0.029144	0.37994	-0.014954	-0.17349	-0.23224	-0.002899	-0.016022
41.235	0.003967	0.46204	-0.005341	-0.025635	-0.001373	-0.028687	0.016174	0.013428	-0.001984	-0.025482	-0.10666	0.00061	0.008392	-0.090179	0.02533	-0.011902	0.11993	0.12604	-0.30563	0.20264	-0.45258	0.071564	-0.58182	-1.0019	0.037689	-0.016937	0.31769	-0.021362	-0.061493	0.070801	-0.004578	-0.016022
41.236	0.010986	0.45273	0.008545	-0.006104	-0.003357	-0.029144	-0.019989	0.015564	0.002747	-0.016937	-0.090942	-0.003204	0.032043	-0.096588	0.095367	-0.009308	0.046387	0.17197	-0.055084	0.13062	-0.35461	-0.011597	-0.21957	-0.31952	0.19913	-0.001526	-0.56976	-0.019684	0.063629	0.095825	-0.003052	-0.009003
41.237	0.007629	0.43137	0.001678	-0.021057	0.002136	-0.0383	-0.032196	0.010071	-0.00412	-0.008545	-0.016632	0.001373	-0.018311	-0.002747	0.079498	-0.024261	-0.039368	0.15106	-0.057678	0.049133	-0.13153	0.004272	-0.24475	0.22354	0.21942	0.021973	-1.2627	-0.013885	0.1474	-0.095062	-0.002136	-0.018463
41.238	0.002899	0.44754	-0.00412	-0.01236	0.009003	-0.054169	-0.045929	0.012817	-0.001221	0.008698	-0.012665	0.002441	-0.071106	0.063934	0.30334	-0.023956	-0.052795	0.15076	-0.41458	0.09552	0.21072	0.14389	-0.19318	-0.26138	0.15717	0.014954	-0.9314	-0.008698	0.03891	-0.20432	0.001678	-0.017395
41.239	0.005493	0.45898	-0.013428	-0.014343	0.013428	-0.04837	-0.058136	0.014648	-0.000458	0.002441	-0.089264	-0.007782	0.000305	0.054016	0.4248	-0.023804	-0.035858	0.22781	-0.15549	0.053864	0.57831	0.17929	-0.35706	-0.84228	-0.22507	-0.009308	-0.32822	-0.015564	-0.090942	-0.1648	-0.007019	-0.006561
41.24	0.00946	0.43518	-0.004883	-0.002289	0.001373	-0.062103	-0.048065	0.009613	0.012054	-0.041199	0.044403	0.013123	0.12436	0.040741	1.225	-0.02533	-0.032654	0.18204	0.31769	0.013885	0.2066	0.12238	-0.23377	-0.9935	0.048676	-0.033112	0.15518	-0.012817	-0.23697	-0.11215	-0.002136	-0.002899
41.241	0.007324	0.39002	-0.005798	0.010681	0.00061	-0.053101	-0.02655	0.013123	0.006256	-0.041199	0.33951	0.013885	0.064087	0.046692	-0.24872	-0.017395	-0.02121	0.10803	0.48019	0.002594	0.068054	0.069885	-0.015717	-1.044	0.23941	-0.020142	-0.055084	-0.004425	-0.10208	0.16388	-0.002899	-0.001526
41.242	0.002899	0.37216	-0.024872	0.016327	0.007324	-0.046997	-0.033875	0.00946	0.005035	-0.04425	0.37964	0.000763	0.008545	0.103	-0.33371	-0.021667	-0.018311	0.029297	0.32669	-0.049591	0.071869	0.012665	0.1236	-0.47043	0.20432	-0.005035	-0.13138	-0.008545	-0.031281	0.36926	-0.004425	0.000763
